<?xml version="1.0" encoding="UTF-8" ?>
<!DOCTYPE svg PUBLIC "-//W3C//DTD SVG 1.1//EN" "http://www.w3.org/Graphics/SVG/1.1/DTD/svg11.dtd">
<svg width="588pt" height="253pt" viewBox="0 0 588 253" version="1.1" xmlns="http://www.w3.org/2000/svg">
<path fill="#FFFFFF" d=" M 274.46 23.79 C 274.50 16.71 278.90 7.35 287.24 8.09 C 287.40 9.72 287.57 11.35 287.82 12.98 C 289.31 11.70 290.00 9.99 289.85 8.05 C 293.01 8.10 296.18 8.42 299.17 9.51 C 298.42 9.54 296.90 9.59 296.15 9.62 C 296.74 11.26 297.35 12.90 297.84 14.58 C 296.99 15.21 296.14 15.84 295.30 16.48 C 295.49 19.28 295.91 22.07 295.85 24.88 C 295.49 26.17 293.85 26.33 292.91 27.09 C 293.64 26.84 295.10 26.33 295.83 26.08 C 297.24 27.25 298.63 28.65 298.32 30.72 C 297.35 29.58 296.43 28.42 295.47 27.28 C 294.40 27.29 292.27 27.31 291.20 27.33 C 292.00 32.14 291.46 37.06 291.65 41.92 C 295.39 42.37 296.80 39.07 297.70 36.09 C 297.55 37.24 297.41 38.39 297.28 39.54 C 298.02 39.56 299.51 39.59 300.26 39.61 C 300.21 36.84 300.36 33.76 297.84 31.97 C 298.55 32.37 299.96 33.16 300.67 33.55 C 300.61 32.63 300.49 30.79 300.43 29.87 C 300.81 30.73 301.18 31.59 301.56 32.46 C 311.14 34.92 321.28 31.77 330.85 33.93 C 329.23 34.13 327.34 34.16 326.94 36.13 C 326.35 38.54 327.02 41.38 325.32 43.42 C 326.59 43.55 327.84 43.71 329.11 43.87 C 328.58 43.45 327.53 42.62 327.01 42.21 C 328.45 39.58 329.88 36.94 330.92 34.13 C 331.56 34.24 332.83 34.46 333.46 34.57 C 334.59 35.48 335.73 36.37 336.88 37.26 C 336.46 37.61 335.63 38.31 335.22 38.66 C 335.75 40.43 336.29 42.20 336.81 43.97 C 337.47 43.53 338.79 42.64 339.44 42.20 C 340.55 43.20 341.73 44.12 343.12 44.69 C 342.69 44.93 341.83 45.41 341.40 45.64 C 341.97 47.48 342.44 49.34 342.68 51.25 C 343.25 50.78 344.40 49.83 344.98 49.35 C 345.43 50.78 345.77 52.24 346.20 53.68 C 345.40 53.51 343.80 53.18 343.00 53.01 C 345.00 54.68 345.70 57.11 345.63 59.65 C 346.25 59.52 347.49 59.27 348.11 59.14 C 347.72 60.01 347.33 60.88 346.94 61.75 C 346.33 61.70 345.11 61.59 344.50 61.53 C 344.41 64.84 345.16 68.24 344.14 71.47 C 342.50 71.44 340.87 71.47 339.24 71.55 C 339.81 73.13 340.39 74.71 340.95 76.29 C 340.21 77.43 339.46 78.73 339.93 80.18 C 338.24 79.67 336.50 79.42 334.74 79.45 C 335.46 78.64 336.19 77.83 336.91 77.02 C 336.25 75.22 335.55 73.44 334.90 71.64 C 335.82 71.71 337.66 71.85 338.59 71.92 C 338.25 71.33 337.57 70.17 337.23 69.59 C 337.48 67.75 337.72 65.91 337.92 64.07 C 339.13 64.34 340.35 64.60 341.58 64.85 C 340.74 63.82 339.79 62.90 338.82 62.01 C 339.04 59.19 338.81 56.23 339.89 53.55 C 340.02 55.48 340.07 57.42 340.25 59.34 C 340.91 57.50 340.82 55.55 340.73 53.63 C 339.90 53.07 338.25 51.96 337.43 51.40 C 338.10 51.35 339.43 51.26 340.10 51.21 L 339.99 50.62 C 337.23 51.41 336.27 49.09 336.01 46.84 C 334.68 46.57 333.35 46.30 332.02 46.01 C 335.86 49.47 338.30 54.69 337.62 59.92 C 337.49 63.61 335.88 67.13 336.34 70.87 C 334.44 69.25 333.02 70.80 331.69 72.15 C 335.54 68.22 330.47 63.75 326.55 62.78 C 326.28 65.59 326.44 68.44 327.70 71.02 C 329.55 72.55 331.46 74.12 332.72 76.20 C 332.78 78.20 332.43 80.18 332.09 82.14 C 332.46 82.82 333.22 84.19 333.59 84.87 C 332.87 84.69 331.43 84.33 330.71 84.15 L 330.60 85.45 C 331.25 85.42 332.55 85.35 333.20 85.32 C 332.60 88.09 328.56 89.91 326.69 87.25 C 326.32 87.88 325.57 89.15 325.20 89.78 C 324.62 89.50 323.47 88.94 322.89 88.66 L 323.82 90.78 C 323.33 90.82 322.35 90.88 321.86 90.91 C 321.25 89.80 320.63 88.70 320.02 87.60 C 320.46 87.63 321.33 87.69 321.77 87.72 C 321.32 87.26 320.43 86.35 319.98 85.90 L 320.82 85.17 C 321.87 84.34 322.67 83.25 323.57 82.26 C 322.97 82.41 321.76 82.71 321.16 82.86 C 320.07 80.84 321.92 78.83 322.47 76.93 C 322.79 77.81 323.41 79.56 323.73 80.43 C 323.72 78.33 322.80 75.90 324.62 74.25 C 324.30 74.39 323.66 74.67 323.33 74.81 C 322.70 73.08 321.51 72.25 319.77 72.34 C 318.82 73.18 317.90 74.04 317.02 74.94 C 317.64 75.38 318.89 76.25 319.51 76.69 C 318.17 80.64 319.25 84.97 317.43 88.81 C 316.08 87.24 314.11 86.01 313.48 83.95 C 313.76 81.64 314.60 79.35 313.96 77.02 C 313.36 79.75 312.18 82.28 311.19 84.88 C 313.17 88.33 317.33 89.20 320.96 89.68 C 321.09 93.15 317.83 90.62 316.14 90.52 C 316.14 90.69 316.14 91.04 316.14 91.21 C 318.21 91.45 319.79 92.75 321.18 94.20 C 321.64 94.32 322.55 94.56 323.01 94.68 C 323.66 95.48 324.32 96.28 324.99 97.07 C 324.10 97.73 323.22 98.38 322.34 99.04 C 322.42 98.45 322.57 97.27 322.65 96.68 C 321.58 95.71 320.52 94.74 319.47 93.76 C 318.42 96.65 320.54 98.72 322.15 100.81 C 321.56 101.33 320.38 102.36 319.79 102.87 C 319.29 100.84 319.90 97.92 317.38 97.13 C 316.68 95.60 316.00 94.06 315.20 92.58 C 314.87 95.76 316.20 98.69 317.55 101.47 C 316.90 102.28 316.25 103.09 315.59 103.88 L 315.22 104.75 L 313.33 104.52 C 314.08 102.97 314.85 101.43 315.62 99.90 C 314.58 99.32 313.54 98.75 312.51 98.19 C 312.42 97.51 312.24 96.14 312.16 95.46 L 310.64 95.67 C 311.06 94.02 311.47 92.36 311.90 90.71 C 312.65 90.92 314.17 91.35 314.93 91.57 C 314.80 91.36 314.55 90.94 314.42 90.73 C 312.55 90.41 310.67 90.07 308.85 89.51 C 305.84 89.27 307.98 86.55 309.15 85.55 C 308.56 85.63 307.38 85.80 306.79 85.88 C 306.78 85.21 306.76 83.87 306.75 83.20 C 305.55 82.99 304.36 82.78 303.17 82.57 C 303.40 80.29 304.52 78.31 305.79 76.46 C 305.56 76.41 305.09 76.31 304.86 76.26 C 303.12 78.74 302.04 81.52 302.16 84.58 C 304.07 84.11 305.75 84.93 306.94 86.41 C 304.69 87.46 302.24 87.86 299.81 88.26 C 303.93 88.46 307.84 89.79 311.81 90.77 C 310.92 92.18 309.97 93.55 308.82 94.76 C 308.70 94.03 308.45 92.56 308.32 91.83 C 308.37 92.91 308.43 93.99 308.51 95.07 C 309.69 95.75 310.26 96.96 310.89 98.11 C 311.91 98.57 312.94 99.03 313.97 99.49 C 313.42 100.98 312.87 102.46 312.32 103.95 C 312.64 104.68 313.27 106.14 313.58 106.87 C 314.61 106.72 315.65 106.58 316.69 106.43 C 315.60 108.29 316.75 109.27 318.43 109.93 C 318.40 111.01 318.35 112.10 318.30 113.18 C 319.65 113.90 321.00 114.61 322.37 115.29 C 320.91 115.41 319.81 116.14 319.08 117.47 C 317.75 117.38 316.41 117.28 315.09 117.17 C 312.23 116.22 309.20 116.10 306.28 115.44 C 306.32 114.60 306.37 113.77 306.42 112.94 C 307.81 111.86 308.76 110.38 309.71 108.93 C 307.97 109.16 306.22 109.39 304.49 109.64 C 304.06 109.26 303.22 108.50 302.80 108.12 C 303.45 109.96 304.16 111.78 304.86 113.61 C 303.27 113.57 301.69 113.50 300.11 113.37 C 297.06 112.20 293.70 111.95 290.81 110.33 C 292.51 109.51 294.35 110.28 296.12 110.32 C 296.04 108.37 293.22 109.15 292.00 108.46 C 292.90 106.90 292.82 105.40 291.76 103.96 C 287.77 107.21 288.59 112.50 288.32 117.06 C 288.29 119.46 289.71 121.58 290.05 123.94 C 291.07 132.76 291.17 141.66 292.34 150.47 C 294.66 148.24 293.54 144.87 293.70 142.04 C 294.73 133.47 294.76 124.15 291.00 116.22 L 289.86 118.19 C 290.24 117.15 290.64 116.11 291.04 115.07 L 291.31 116.41 C 291.85 116.25 292.94 115.93 293.49 115.77 C 292.53 111.92 297.70 113.81 299.64 114.37 C 300.10 115.34 300.58 116.30 301.08 117.26 C 301.83 116.62 302.59 116.00 303.37 115.40 C 307.81 116.98 312.46 118.03 317.12 118.72 C 319.87 119.81 322.45 121.66 325.52 121.59 L 325.55 122.59 C 326.77 122.56 327.99 122.53 329.21 122.51 C 331.46 124.01 333.71 125.54 335.64 127.44 C 336.70 127.50 337.76 127.55 338.83 127.60 C 338.63 128.71 338.43 129.82 338.23 130.94 C 337.59 130.72 336.30 130.29 335.66 130.07 C 336.56 131.58 338.13 133.22 337.27 135.14 C 335.82 139.24 334.01 143.23 331.63 146.88 C 331.49 148.53 331.37 150.19 331.27 151.85 C 333.25 152.28 333.48 150.45 333.95 149.03 C 335.64 147.74 336.60 145.31 334.28 143.99 C 334.68 143.42 335.48 142.29 335.88 141.72 C 337.39 141.17 338.90 140.61 340.41 140.06 C 340.50 140.59 340.70 141.64 340.80 142.17 C 343.78 141.93 346.24 140.24 348.82 138.92 C 347.21 137.84 345.30 138.65 343.55 138.78 C 343.38 137.50 343.21 136.23 343.04 134.95 C 341.68 135.66 340.34 136.38 338.97 137.06 C 339.91 133.35 342.51 130.36 345.35 127.91 C 345.41 128.58 345.53 129.90 345.60 130.56 C 345.25 130.56 344.55 130.55 344.20 130.55 C 344.25 132.08 344.73 133.88 343.20 134.92 C 343.54 135.62 344.21 137.03 344.55 137.74 C 346.10 137.61 347.65 137.52 349.21 137.47 C 349.95 136.86 350.69 136.24 351.43 135.62 C 351.80 135.67 352.53 135.76 352.90 135.81 C 355.16 134.12 357.40 132.38 359.70 130.73 C 364.51 129.40 371.24 129.97 373.47 124.39 C 372.59 121.88 371.82 119.33 370.92 116.83 C 371.77 115.82 372.62 114.81 373.48 113.80 C 374.50 114.16 375.52 114.52 376.55 114.89 C 377.32 114.57 378.10 114.26 378.89 113.94 C 378.32 115.34 377.75 116.75 377.21 118.16 C 377.69 118.35 378.64 118.72 379.12 118.91 C 380.62 124.15 381.56 129.56 383.30 134.74 C 385.01 139.91 384.42 145.73 387.43 150.47 C 388.73 153.50 391.21 155.75 394.08 157.32 C 392.96 154.73 391.51 152.31 390.08 149.89 C 392.91 152.88 396.09 155.83 400.19 156.87 C 400.75 153.32 402.06 149.86 401.85 146.21 C 400.14 149.00 400.23 152.47 398.38 155.21 C 396.22 153.26 396.08 150.26 395.62 147.59 C 393.42 147.73 391.44 144.34 393.60 142.94 C 393.21 142.30 392.42 141.01 392.02 140.37 C 391.65 140.43 390.90 140.55 390.53 140.61 C 389.88 136.31 388.87 132.08 388.04 127.81 L 390.32 128.42 C 391.46 131.73 392.29 135.15 392.70 138.63 C 393.13 138.59 394.00 138.51 394.43 138.47 C 394.56 133.55 392.84 129.03 390.31 124.90 C 390.40 125.72 390.57 127.36 390.66 128.18 C 388.74 127.90 387.40 126.86 386.63 125.06 C 385.81 126.60 385.56 128.33 385.46 130.05 C 388.15 133.03 387.39 137.16 387.62 140.81 C 388.60 143.99 390.11 147.00 390.72 150.29 C 387.82 148.21 387.80 144.28 386.75 141.17 C 385.65 135.20 383.95 129.21 384.39 123.09 C 383.68 121.40 382.84 119.70 380.86 119.28 C 383.83 119.89 386.90 120.01 389.88 119.34 C 393.14 119.08 395.27 116.35 398.01 114.91 C 398.42 115.32 399.23 116.15 399.64 116.56 C 401.17 115.64 402.72 114.73 404.28 113.83 C 404.37 114.42 404.56 115.61 404.65 116.21 L 404.77 114.42 C 406.62 115.35 407.80 114.28 408.67 112.68 C 410.45 112.50 412.23 112.23 413.98 111.79 C 416.34 111.65 418.72 111.49 421.07 111.17 C 421.34 110.69 421.89 109.73 422.16 109.25 C 424.57 109.35 426.97 109.50 429.38 109.64 C 429.32 110.14 429.21 111.14 429.15 111.64 L 431.49 111.79 C 431.52 111.39 431.58 110.60 431.61 110.20 C 433.07 112.00 434.01 114.14 434.58 116.38 C 433.77 115.41 433.07 114.34 432.40 113.27 C 431.68 113.25 430.23 113.20 429.50 113.17 C 428.84 117.03 433.15 118.47 435.52 120.53 L 432.91 120.22 C 433.38 121.18 434.31 123.08 434.78 124.04 C 433.81 125.30 432.85 126.57 431.90 127.84 C 431.01 125.91 430.09 123.99 429.09 122.12 C 428.13 124.95 429.38 127.84 429.95 130.61 C 428.01 129.35 426.17 128.02 424.10 127.02 C 422.72 124.72 420.92 122.60 418.16 122.00 C 419.04 124.99 419.92 127.98 420.70 131.00 C 421.43 129.38 421.63 127.62 421.75 125.88 C 422.87 128.95 424.03 132.01 425.07 135.11 C 426.03 137.97 425.12 141.15 426.41 143.95 C 426.32 147.68 424.41 150.92 423.25 154.36 C 422.12 154.68 421.00 155.01 419.89 155.35 C 420.83 155.31 422.72 155.24 423.67 155.20 C 423.05 157.18 422.43 159.16 421.85 161.15 C 421.09 161.39 419.56 161.87 418.80 162.11 C 418.33 161.50 417.40 160.28 416.93 159.67 C 417.02 160.36 417.19 161.73 417.27 162.42 C 422.01 162.08 426.74 161.50 431.39 160.50 C 430.79 160.39 429.59 160.16 428.99 160.04 C 429.35 155.77 433.61 151.44 430.51 147.36 C 430.07 147.04 429.17 146.38 428.72 146.05 C 428.87 150.76 429.52 156.34 426.08 160.13 C 425.39 160.30 424.00 160.65 423.30 160.82 C 424.14 157.79 425.93 154.86 425.49 151.60 C 425.95 151.52 426.87 151.37 427.32 151.29 C 427.43 149.22 427.40 147.13 428.01 145.13 C 430.25 145.26 432.49 145.43 434.72 145.70 C 439.64 146.51 444.36 148.62 449.40 148.61 C 448.89 148.27 447.87 147.60 447.36 147.27 C 447.41 146.52 447.52 145.02 447.57 144.27 C 447.27 144.92 446.67 146.22 446.37 146.87 C 445.22 146.68 444.08 146.49 442.94 146.31 C 440.75 145.60 438.50 144.97 436.58 143.65 C 442.38 143.23 448.20 143.44 454.01 143.38 C 458.38 143.27 462.65 144.61 467.02 144.34 C 477.71 143.79 487.90 139.88 498.56 139.12 C 498.51 139.58 498.42 140.49 498.38 140.95 C 498.68 140.90 499.29 140.82 499.60 140.77 C 499.49 140.20 499.28 139.06 499.17 138.50 C 504.61 136.51 510.43 136.04 516.09 135.01 C 521.64 133.72 527.34 133.07 533.04 133.28 C 536.00 133.48 539.33 132.47 541.92 134.38 C 545.14 134.62 548.76 133.47 551.56 135.60 C 553.11 136.88 555.14 136.13 556.94 136.00 C 557.30 136.35 558.01 137.04 558.37 137.39 C 564.89 136.53 570.93 140.21 575.55 144.45 C 575.63 145.07 575.80 146.32 575.88 146.94 C 573.03 140.51 565.36 139.34 559.32 137.64 C 558.61 138.13 557.92 138.63 557.24 139.15 L 559.82 139.29 C 559.72 139.69 559.53 140.50 559.44 140.91 C 558.05 140.31 556.70 139.64 555.39 138.90 L 556.94 138.59 C 556.94 138.06 556.94 137.00 556.94 136.47 C 556.22 136.61 554.79 136.89 554.07 137.03 C 554.39 137.65 555.03 138.87 555.35 139.49 C 553.33 138.98 551.30 138.54 549.25 138.26 C 549.38 137.34 549.51 136.42 549.65 135.50 C 546.98 135.47 544.30 135.04 541.65 135.48 C 541.51 136.01 541.22 137.07 541.08 137.61 C 542.17 137.61 543.28 137.58 544.37 137.44 C 544.53 137.04 544.83 136.25 544.99 135.85 C 545.87 136.63 545.32 138.16 545.60 139.23 C 546.72 139.45 547.81 139.79 548.87 140.24 C 553.72 141.28 558.33 143.39 563.30 143.76 C 565.41 144.95 567.72 145.84 570.19 145.39 C 567.96 142.11 563.74 141.98 560.52 140.23 C 563.90 140.60 567.82 141.17 570.03 144.05 C 571.79 146.41 573.87 148.93 573.63 152.08 C 573.63 159.46 572.85 166.83 573.22 174.22 C 573.02 174.62 572.62 175.41 572.41 175.81 C 573.85 180.22 572.68 184.86 572.45 189.36 C 575.01 188.31 574.62 185.41 574.88 183.21 C 576.10 173.43 574.41 163.57 575.48 153.78 C 576.31 164.16 575.48 174.57 575.38 184.96 C 575.70 188.51 572.36 190.92 570.04 193.08 C 562.42 196.06 554.05 196.29 546.07 197.74 C 544.18 198.34 542.48 199.39 540.71 200.26 C 541.13 199.61 541.97 198.31 542.39 197.66 C 541.50 197.64 539.74 197.62 538.86 197.61 C 537.60 198.97 536.16 200.15 534.31 200.59 C 534.45 203.05 534.48 205.52 534.35 207.99 C 529.22 211.10 524.82 217.63 518.04 216.22 C 517.95 216.97 517.77 218.46 517.68 219.21 C 515.03 218.43 512.72 216.89 510.76 214.97 C 510.97 213.31 511.18 211.66 511.23 209.99 C 510.53 212.34 508.54 213.72 506.64 215.03 C 506.13 213.66 505.63 212.28 505.12 210.91 C 504.14 212.19 503.44 213.63 503.10 215.20 C 504.73 215.67 506.35 216.17 507.98 216.70 C 510.48 218.79 513.61 220.35 515.10 223.40 C 515.69 223.43 516.87 223.49 517.46 223.51 C 510.93 225.63 503.94 224.46 497.21 224.76 C 497.36 225.25 497.67 226.24 497.82 226.73 C 496.97 226.81 496.13 226.92 495.30 227.06 C 485.41 227.63 475.67 225.65 465.99 223.96 C 455.73 223.55 445.39 223.71 435.23 225.33 C 428.19 226.54 421.21 228.67 413.99 227.97 C 411.60 230.90 407.57 230.00 404.25 230.20 C 396.67 232.09 388.71 232.12 380.94 231.61 C 377.12 230.85 373.25 230.50 369.35 230.67 C 369.36 229.42 369.38 228.18 369.40 226.94 C 368.86 227.26 367.79 227.90 367.25 228.22 C 367.39 228.64 367.69 229.48 367.83 229.90 C 364.15 230.11 360.67 228.72 357.08 228.24 C 358.14 227.44 359.25 226.70 360.37 225.97 C 359.81 225.70 358.71 225.16 358.15 224.89 C 356.86 227.51 353.43 228.85 351.06 226.75 C 350.29 226.79 348.73 226.85 347.96 226.89 C 347.49 226.60 346.55 226.03 346.08 225.74 C 341.40 225.53 336.77 224.28 332.52 222.36 C 321.51 225.90 310.47 229.35 299.58 233.22 C 295.20 235.57 290.06 233.25 285.48 232.70 C 285.46 232.35 285.40 231.65 285.38 231.30 C 286.07 230.80 288.60 230.75 287.87 229.54 L 287.35 229.51 C 284.72 230.28 284.75 225.37 281.91 226.34 C 282.75 227.66 283.62 228.97 284.50 230.27 C 284.34 230.85 284.03 232.01 283.87 232.60 C 281.53 230.81 278.58 232.35 276.02 231.24 C 266.65 228.20 256.82 226.87 247.56 223.46 C 245.94 222.84 244.89 221.37 243.70 220.21 C 247.90 221.17 251.86 222.94 256.11 223.72 C 257.51 224.41 259.09 224.34 260.62 224.46 C 260.66 224.80 260.74 225.50 260.78 225.84 C 261.48 224.50 263.83 223.14 262.48 221.50 C 259.19 217.42 256.11 212.70 256.57 207.21 C 256.07 207.15 255.08 207.04 254.58 206.99 C 254.09 213.26 256.86 219.19 260.89 223.85 C 259.98 223.78 258.16 223.64 257.25 223.57 C 257.94 220.56 255.28 218.52 254.13 216.04 C 252.45 213.39 251.94 210.26 251.59 207.19 C 251.22 206.90 250.50 206.30 250.14 206.00 C 249.10 212.23 251.97 217.87 255.02 223.05 C 254.21 222.80 252.59 222.31 251.78 222.06 C 251.14 218.07 247.72 215.14 247.59 211.03 C 247.25 209.45 247.77 207.29 245.85 206.57 C 244.60 211.61 246.37 216.67 248.87 221.02 C 245.79 220.90 245.74 217.60 244.51 215.54 C 243.01 212.97 242.65 210.01 242.56 207.09 C 242.23 207.06 241.57 206.99 241.24 206.96 C 240.09 211.22 240.83 215.71 243.74 219.10 C 243.64 220.11 243.54 221.13 243.44 222.14 C 239.45 223.81 235.11 223.84 230.89 224.33 C 223.59 225.78 216.64 228.55 209.51 230.62 C 203.42 234.55 195.91 234.27 188.96 234.73 C 174.75 235.23 161.72 228.75 147.99 226.30 C 142.37 225.41 136.82 223.70 131.07 223.97 C 123.42 224.17 115.76 223.79 108.11 224.05 C 108.23 223.36 108.47 221.99 108.59 221.31 C 107.76 220.21 106.94 219.10 106.15 217.98 C 107.07 219.92 107.66 221.99 107.86 224.14 C 103.19 224.21 98.52 223.53 93.89 224.41 C 93.77 223.71 93.53 222.32 93.40 221.63 C 93.38 222.30 93.34 223.63 93.32 224.30 C 88.86 224.46 84.48 223.49 80.05 223.28 C 75.00 223.88 68.47 224.73 64.91 220.26 C 65.34 219.31 65.72 218.34 66.07 217.35 C 64.19 215.70 61.93 214.60 59.90 213.16 C 60.29 212.91 61.08 212.42 61.48 212.17 C 60.31 209.45 59.90 206.53 59.47 203.63 C 57.98 206.62 57.97 210.29 59.19 213.38 C 55.32 211.24 51.89 208.35 49.78 204.41 C 50.36 204.54 51.52 204.78 52.10 204.90 C 52.04 203.59 51.92 202.28 51.76 200.97 C 50.86 199.20 49.01 200.83 47.84 201.32 C 48.09 199.58 48.34 197.85 48.63 196.12 C 44.13 195.31 39.87 193.60 35.96 191.27 C 31.67 190.37 27.28 191.18 22.95 190.85 C 21.83 190.90 21.10 190.34 20.76 189.17 C 16.56 191.18 13.38 187.10 10.77 184.39 C 12.97 186.19 16.02 185.06 18.38 186.34 L 16.15 186.38 L 16.35 188.62 C 17.29 188.29 19.17 187.63 20.11 187.30 C 19.29 185.01 18.35 182.74 16.78 180.87 C 16.51 182.19 16.19 183.50 15.80 184.80 C 14.50 184.88 14.40 183.12 13.64 182.41 C 12.95 180.73 10.98 180.78 9.51 180.26 C 9.31 178.44 9.13 176.62 8.93 174.80 C 9.66 175.69 10.40 176.57 11.15 177.45 C 10.98 175.39 12.06 172.80 10.87 171.04 C 8.54 169.33 8.85 172.68 8.26 174.14 C 8.39 166.39 8.45 158.65 8.17 150.91 C 8.11 145.74 12.52 142.13 16.43 139.49 C 19.60 135.67 24.61 134.65 29.29 134.07 C 28.90 133.50 28.12 132.36 27.73 131.79 C 29.71 131.95 31.54 132.69 33.22 133.72 C 33.64 133.35 34.48 132.61 34.89 132.24 C 41.68 132.29 48.75 130.10 55.34 132.38 C 58.60 132.08 61.91 132.05 65.09 132.91 C 81.08 135.24 96.86 139.03 112.99 140.23 C 121.96 140.53 131.19 141.59 139.93 138.96 C 141.80 138.49 143.31 137.26 144.79 136.09 C 143.85 135.06 142.91 134.05 141.97 133.04 C 141.84 132.65 141.59 131.88 141.47 131.49 C 139.13 130.00 137.88 127.41 136.85 124.94 C 136.18 120.08 139.08 115.80 140.77 111.47 C 146.80 111.41 152.94 109.50 158.88 111.31 C 162.15 112.44 165.73 111.84 168.96 113.14 C 170.26 113.03 171.57 112.93 172.88 112.83 C 175.31 114.37 178.14 115.13 181.01 114.57 C 182.91 118.21 187.59 117.06 190.93 117.17 C 192.16 115.27 193.56 113.47 195.28 111.99 C 198.83 111.37 202.33 112.32 205.19 114.47 C 203.44 114.45 202.19 115.48 201.06 116.66 C 201.48 118.61 201.96 120.55 202.56 122.45 C 201.00 122.64 200.52 123.52 201.10 125.09 C 203.34 124.76 204.31 122.12 205.82 120.64 C 206.51 120.51 207.21 120.38 207.92 120.26 C 207.32 120.67 206.13 121.47 205.54 121.88 C 205.73 124.69 207.10 127.10 209.72 128.27 C 212.01 128.17 214.42 128.07 216.31 129.60 C 216.87 129.63 217.98 129.71 218.54 129.74 C 219.31 130.20 220.08 130.66 220.86 131.13 C 223.27 131.51 228.54 130.64 227.63 134.58 C 228.86 134.66 230.09 134.73 231.32 134.81 C 230.46 134.30 228.75 133.29 227.89 132.79 C 231.25 133.02 232.20 129.83 233.77 127.62 C 232.10 126.00 230.21 123.90 231.76 121.50 C 231.30 121.11 230.37 120.34 229.91 119.95 C 232.90 119.48 235.28 117.69 237.22 115.47 C 241.04 114.35 244.73 112.56 247.79 109.99 C 250.13 108.25 249.86 104.80 248.90 102.37 C 247.71 101.60 246.55 100.79 245.41 99.97 C 244.52 95.85 242.63 92.07 240.27 88.61 C 237.65 83.98 235.19 79.26 232.21 74.84 C 230.36 72.21 229.52 68.97 227.29 66.59 C 228.19 64.85 227.98 62.85 228.00 60.96 C 227.81 57.08 229.03 53.34 229.17 49.49 C 231.28 44.25 233.94 38.96 238.41 35.35 C 241.58 33.03 245.19 31.19 249.04 30.35 C 253.03 30.09 257.04 30.14 261.03 30.41 C 265.78 31.22 270.46 32.89 275.36 32.41 C 275.47 29.50 274.98 26.64 274.46 23.79 Z" />
<path fill="#FFFFFF" d=" M 256.26 32.97 C 257.36 33.06 259.57 33.26 260.67 33.35 C 262.30 34.45 262.88 36.46 264.20 37.86 C 263.48 39.53 262.74 41.18 262.03 42.85 C 259.56 42.20 257.05 41.79 254.50 41.65 C 254.64 40.02 254.78 38.40 254.93 36.78 C 257.35 36.58 256.90 34.76 256.26 32.97 Z" />
<path fill="#FFFFFF" d=" M 329.09 89.08 C 330.30 89.79 330.30 90.55 329.10 91.35 C 327.88 90.63 327.88 89.87 329.09 89.08 Z" />
<path fill="#FFFFFF" d=" M 318.52 104.98 C 319.78 104.12 320.42 104.38 320.45 105.78 C 319.18 106.65 318.54 106.38 318.52 104.98 Z" />
<path fill="#FFFFFF" d=" M 324.32 105.23 C 324.78 105.82 324.78 105.82 324.32 105.23 Z" /><path fill="#FFFFFF" d=" M 323.20 110.29 C 323.83 110.70 323.83 110.70 323.20 110.29 Z" />
<path fill="#FFFFFF" d=" M 329.90 114.73 C 331.17 114.91 332.43 115.11 333.71 115.28 L 333.22 116.92 C 334.06 116.74 335.74 116.38 336.58 116.20 L 336.44 117.80 C 337.21 117.66 338.74 117.38 339.51 117.24 L 339.78 118.23 C 342.06 118.96 344.08 120.26 346.08 121.55 C 342.07 122.56 338.06 121.54 334.03 121.37 C 332.23 121.39 330.65 120.46 329.04 119.80 C 327.11 119.49 325.16 119.10 323.67 117.72 C 326.72 117.59 329.78 117.57 332.83 117.38 C 331.87 116.47 330.88 115.60 329.90 114.73 Z" /><path fill="#FFFFFF" d=" M 292.12 185.61 C 295.36 185.96 290.50 188.65 292.12 185.61 Z" />
<path fill="#FFFFFF" d=" M 518.24 222.67 C 517.18 221.46 519.71 219.01 520.22 221.04 C 520.04 222.35 519.38 222.89 518.24 222.67 Z" />
<path fill="#FFFFFF" d=" M 499.24 226.27 C 499.84 226.75 499.84 226.75 499.24 226.27 Z" /></svg>
